# xmcd
#
# Track frame offsets: 
#        150
#        38182
#        52821
#        67944
#        82320
#        108521
#        156408
#
# Disc length: 2258 seconds
#
# Revision: 0
# Processed by: cddbd v1.5.2PL0 Copyright (c) Steve Scherf et al.
# Submitted via: ExactAudioCopy v0.99pb4
#
DISCID=5808d007
DTITLE=Segun Bucknor - Who Say I Tire [CD2]
DYEAR=1979
DGENRE=Afrobeat
TTITLE0=Gbmojo
TTITLE1=Ayinde Ogo
TTITLE2=Who Say I Tire
TTITLE3=You Killing Me
TTITLE4=Adebo
TTITLE5=La La La (Acoustic Version)
TTITLE6=That's The Time
EXTD=
EXTT0=
EXTT1=
EXTT2=
EXTT3=
EXTT4=
EXTT5=
EXTT6=
PLAYORDER=
